<?xml version="1.0" standalone="no"?>
<!DOCTYPE svg PUBLIC "-//W3C//DTD SVG 20010904//EN"
 "http://www.w3.org/TR/2001/REC-SVG-20010904/DTD/svg10.dtd">
<svg version="1.0" xmlns="http://www.w3.org/2000/svg"
 width="191.000000pt" height="147.000000pt" viewBox="0 0 191.000000 147.000000"
 preserveAspectRatio="xMidYMid meet">
<metadata>
Created by potrace 1.10, written by Peter Selinger 2001-2011
</metadata>
<g transform="translate(0.000000,147.000000) scale(0.100000,-0.100000)"
fill="#000000" stroke="none">
<path d="M677 1265 c-4 -8 -22 -36 -42 -63 l-37 -49 -91 14 c-50 7 -97 11
-104 9 -23 -9 -81 -111 -86 -153 l-5 -41 65 -9 66 -10 33 36 c18 20 31 37 30
38 -1 1 -35 7 -76 14 -41 6 -79 13 -83 16 -12 7 42 62 62 61 19 0 105 13 109
17 2 1 19 -1 39 -6 34 -7 39 -5 72 30 20 21 44 50 54 64 11 16 27 27 40 27 21
-1 21 -1 3 -15 -10 -8 -24 -16 -30 -18 -6 -2 -8 -7 -4 -11 3 -4 18 0 33 10 53
34 125 25 94 -12 -6 -8 -10 -17 -7 -19 3 -3 13 10 23 30 11 19 17 36 15 38 -3
2 -42 7 -86 11 -67 5 -83 4 -87 -9z m-202 -115 c-45 -11 -77 -11 -70 0 3 6 27
9 53 9 42 -1 44 -2 17 -9z m-16 -126 c7 -6 -21 -34 -33 -34 -32 0 -86 23 -86
36 0 11 11 13 58 8 31 -4 59 -8 61 -10z"/>
<path d="M838 1196 l-27 -54 27 -5 c33 -6 38 -3 58 34 14 28 14 33 -1 55 -8
13 -19 24 -23 24 -4 0 -19 -25 -34 -54z m32 -16 c-6 -11 -12 -20 -14 -20 -2 0
-2 9 1 20 3 11 9 20 15 20 5 0 4 -9 -2 -20z"/>
<path d="M1115 1195 c-37 -20 -45 -32 -45 -73 0 -71 91 -110 193 -81 51 14 77
41 77 82 0 56 -37 81 -123 85 -52 2 -80 -2 -102 -13z m181 -36 c27 -25 22 -44
-16 -64 -49 -25 -171 -12 -184 20 -4 11 0 12 17 6 43 -16 77 -21 77 -12 0 5
-18 12 -40 16 -22 4 -40 12 -40 19 0 26 26 36 94 36 57 0 74 -4 92 -21z"/>
<path d="M1225 1110 c-7 -12 2 -12 30 0 19 8 19 9 -2 9 -12 1 -25 -3 -28 -9z"/>
<path d="M1420 1162 c-28 -14 -37 -25 -44 -59 -10 -50 1 -68 51 -90 67 -28
179 -7 203 38 6 10 7 34 2 56 -6 30 -15 42 -42 55 -45 23 -125 23 -170 0z
m175 -37 c32 -31 31 -41 -5 -60 -51 -26 -190 -14 -190 17 0 11 2 10 43 -7 20
-8 39 -15 43 -15 9 0 -2 25 -12 26 -32 4 -74 18 -74 25 0 22 48 39 108 39 53
0 67 -4 87 -25z"/>
<path d="M1536 1081 c-11 -4 -15 -10 -10 -13 5 -4 20 0 34 8 26 14 9 18 -24 5z"/>
<path d="M896 1121 c-3 -5 4 -11 15 -14 16 -4 20 -11 15 -24 -4 -12 1 -9 13 7
14 18 16 27 8 32 -16 10 -45 10 -51 -1z"/>
<path d="M820 1095 c-7 -14 -10 -28 -7 -32 4 -3 7 1 7 10 0 25 17 29 52 12
l33 -16 -28 25 c-35 32 -40 32 -57 1z"/>
<path d="M941 1060 l-33 -50 -98 0 -97 0 -50 -58 -51 -58 -87 8 c-48 4 -90 10
-93 12 -3 3 1 14 9 23 11 15 10 15 -9 -1 -18 -15 -22 -30 -22 -72 l0 -52 63
-6 c156 -15 146 -17 204 46 29 32 53 61 53 66 0 4 43 6 96 4 94 -4 96 -4 125
24 17 16 39 43 50 61 19 30 19 33 2 67 -9 20 -19 36 -22 36 -3 0 -21 -23 -40
-50z m49 -21 c0 -5 -16 -27 -36 -49 l-36 -40 -93 0 -93 0 -52 -60 -52 -60 -93
0 c-96 0 -107 5 -97 43 5 18 29 18 141 1 31 -5 38 0 90 56 l57 61 94 -2 95 -2
29 36 c26 33 46 40 46 16z"/>
<path d="M1204 1000 c-45 -14 -56 -32 -52 -87 3 -42 7 -50 33 -63 18 -9 57
-15 97 -15 86 0 122 23 126 81 4 60 -29 87 -111 91 -34 1 -76 -2 -93 -7z m170
-42 c9 -12 16 -27 16 -33 0 -20 -65 -44 -122 -44 -46 -1 -62 4 -84 23 l-28 23
27 27 c24 23 33 26 101 26 66 0 77 -3 90 -22z"/>
<path d="M1186 920 c5 -5 25 -12 44 -15 l35 -5 -35 14 c-42 18 -58 20 -44 6z"/>
<path d="M1308 903 c6 -2 18 -2 25 0 6 3 1 5 -13 5 -14 0 -19 -2 -12 -5z"/>
<path d="M510 990 c0 -5 18 -11 40 -11 22 -1 45 -2 52 -3 6 -1 13 4 15 10 2 7
-17 12 -52 13 -32 1 -55 -3 -55 -9z"/>
<path d="M619 943 c-13 -16 -12 -17 4 -4 9 7 17 15 17 17 0 8 -8 3 -21 -13z"/>
<path d="M870 595 c0 -96 3 -115 15 -115 12 0 15 19 15 115 0 96 -3 115 -15
115 -12 0 -15 -19 -15 -115z"/>
<path d="M431 602 c-12 -53 -25 -103 -28 -109 -3 -8 3 -13 15 -13 15 0 22 12
33 67 l14 66 30 -71 c17 -40 33 -72 36 -72 3 0 18 31 34 69 16 38 32 68 36 65
3 -2 9 -31 13 -64 6 -50 10 -60 26 -60 11 0 20 2 20 5 0 7 -52 210 -55 213 -1
1 -17 -33 -35 -78 -19 -44 -36 -80 -39 -80 -3 0 -19 34 -36 76 -16 42 -33 77
-36 79 -3 2 -15 -40 -28 -93z"/>
<path d="M1095 690 c-8 -14 3 -30 21 -30 8 0 14 9 14 20 0 21 -24 28 -35 10z"/>
<path d="M697 602 c-43 -47 -4 -141 51 -127 15 3 37 6 50 6 21 -1 22 3 22 69
0 56 -3 70 -15 70 -8 0 -15 -5 -15 -12 0 -9 -3 -9 -12 0 -18 18 -63 14 -81 -6z
m77 -15 c39 -29 -1 -106 -41 -81 -25 16 -29 65 -7 81 10 7 21 13 24 13 3 0 14
-6 24 -13z"/>
<path d="M936 588 c9 -18 28 -52 41 -76 l25 -42 34 71 c19 40 32 74 30 77 -13
12 -36 -11 -47 -47 -7 -23 -15 -41 -18 -41 -3 0 -14 20 -24 45 -13 31 -25 45
-38 45 -19 0 -19 -1 -3 -32z"/>
<path d="M1095 550 c0 -60 3 -70 18 -70 15 0 17 10 17 70 0 60 -2 70 -17 70
-15 0 -18 -10 -18 -70z"/>
<path d="M1170 550 c0 -63 2 -70 20 -70 17 0 20 7 20 50 0 38 4 52 19 60 36
19 51 3 51 -56 0 -45 3 -54 18 -54 15 0 17 8 14 57 -5 67 -14 83 -51 83 -15 0
-33 -6 -40 -12 -11 -10 -14 -10 -18 0 -3 6 -11 12 -19 12 -11 0 -14 -16 -14
-70z"/>
<path d="M1370 600 c-43 -43 -6 -130 55 -130 36 0 75 42 75 80 0 41 -31 70
-75 70 -22 0 -43 -8 -55 -20z m97 -36 c3 -9 0 -27 -6 -40 -16 -36 -62 -30 -76
10 -8 24 -6 31 14 47 25 20 57 12 68 -17z"/>
<path d="M439 261 c-30 -24 -33 -89 -5 -120 21 -23 75 -28 94 -9 9 9 12 9 12
0 0 -7 5 -12 10 -12 6 0 10 20 10 45 l0 45 -41 0 c-28 0 -39 -4 -36 -12 2 -7
13 -12 25 -10 27 4 36 -13 16 -32 -18 -19 -55 -21 -72 -4 -7 7 -12 28 -12 48
0 20 5 41 12 48 17 17 54 15 73 -4 23 -23 32 -8 10 16 -23 25 -66 26 -96 1z"/>
<path d="M1290 264 c0 -17 22 -14 28 4 2 7 -3 12 -12 12 -9 0 -16 -7 -16 -16z"/>
<path d="M1345 260 c-3 -5 -3 -10 2 -10 4 0 1 -5 -7 -11 -11 -8 -12 -12 -2
-16 7 -3 12 -24 12 -54 0 -37 4 -49 15 -49 16 0 20 12 8 23 -9 10 -10 71 -1
77 9 7 -1 50 -13 50 -4 0 -11 -4 -14 -10z"/>
<path d="M590 225 c-17 -21 -7 -29 18 -14 21 13 57 5 47 -11 -3 -5 -17 -10
-29 -10 -28 0 -49 -22 -44 -47 3 -14 14 -18 56 -19 38 -1 50 1 43 10 -5 6 -11
32 -13 56 -3 42 -5 45 -34 48 -19 2 -36 -3 -44 -13z m59 -71 c-15 -18 -49 -18
-49 0 0 8 10 16 23 18 30 5 40 -1 26 -18z"/>
<path d="M700 178 c0 -44 4 -58 14 -58 11 0 13 9 9 35 -6 37 9 65 33 65 10 0
14 -14 14 -50 0 -64 18 -66 22 -2 3 39 6 47 23 47 17 0 20 -6 19 -47 0 -33 4
-48 13 -48 17 0 18 96 1 107 -7 4 -43 8 -80 9 l-68 0 0 -58z"/>
<path d="M897 222 c-21 -23 -22 -66 -1 -86 20 -20 58 -21 74 -1 17 21 7 29
-18 14 -11 -7 -27 -9 -36 -6 -30 12 -17 26 27 29 36 3 42 6 39 23 -7 43 -57
58 -85 27z m61 -19 c2 -9 -7 -13 -27 -13 -30 0 -39 9 -24 24 11 10 46 3 51
-11z"/>
<path d="M1070 225 c-18 -22 -5 -45 30 -51 36 -8 41 -34 5 -34 -14 0 -25 5
-25 10 0 6 -4 10 -10 10 -16 0 -11 -27 6 -34 27 -10 51 -7 65 10 16 20 1 46
-31 54 -13 3 -25 11 -28 18 -5 15 30 16 46 0 17 -17 28 -2 12 17 -16 19 -54
19 -70 0z"/>
<path d="M1170 191 c0 -56 12 -70 60 -68 l35 1 -1 53 c0 29 -5 52 -10 51 -5
-2 -8 -12 -6 -23 6 -40 -7 -66 -31 -63 -19 3 -22 10 -25 51 -4 62 -22 61 -22
-2z"/>
<path d="M1290 180 c0 -48 3 -60 16 -60 11 0 14 5 10 16 -3 9 -6 36 -6 60 0
24 -4 44 -10 44 -6 0 -10 -27 -10 -60z"/>
<path d="M1415 226 c-21 -15 -25 -67 -5 -90 7 -9 23 -16 36 -16 23 0 60 28 49
38 -3 3 -11 0 -17 -6 -16 -16 -43 -15 -58 3 -11 13 -6 15 34 15 38 0 46 3 46
18 0 22 -30 52 -51 52 -9 0 -24 -6 -34 -14z m63 -23 c2 -9 -7 -13 -27 -13 -30
0 -39 9 -24 24 11 10 46 3 51 -11z"/>
</g>
</svg>
