<?xml version="1.0" standalone="no"?>
<!DOCTYPE svg PUBLIC "-//W3C//DTD SVG 20010904//EN"
 "http://www.w3.org/TR/2001/REC-SVG-20010904/DTD/svg10.dtd">
<svg version="1.0" xmlns="http://www.w3.org/2000/svg"
 width="125.000000pt" height="124.000000pt" viewBox="0 0 125.000000 124.000000"
 preserveAspectRatio="xMidYMid meet">
<metadata>
Created by potrace 1.10, written by Peter Selinger 2001-2011
</metadata>
<g transform="translate(0.000000,124.000000) scale(0.100000,-0.100000)"
fill="#000000" stroke="none">
<path d="M655 1150 c-33 -17 -35 -19 -12 -15 16 3 53 -1 82 -9 97 -29 171
-137 203 -299 9 -45 18 -75 20 -66 1 9 -6 61 -17 115 -48 235 -150 336 -276
274z"/>
<path d="M644 1042 c-6 -4 -13 -15 -17 -24 -7 -19 -106 -68 -136 -68 -9 0 -22
5 -28 11 -7 7 -17 2 -33 -18 -20 -26 -22 -36 -18 -128 5 -105 21 -155 57 -174
29 -16 51 8 59 64 6 43 11 50 32 53 14 2 35 13 46 23 18 17 38 23 86 28 4 1
13 8 22 16 13 14 19 13 51 -9 49 -33 73 -40 90 -26 34 28 -2 106 -87 188 -42
40 -46 42 -76 31 -53 -18 -54 -78 0 -95 22 -7 58 20 58 45 0 24 75 -55 96
-100 16 -37 16 -41 1 -56 -14 -15 -20 -13 -67 17 -46 29 -52 31 -68 17 -9 -8
-30 -17 -47 -19 -16 -3 -38 -9 -47 -13 -15 -6 -18 -2 -18 19 0 24 -24 46 -49
46 -17 0 -42 -46 -35 -64 8 -22 50 -31 69 -16 10 8 15 9 15 1 0 -6 -12 -13
-27 -17 -50 -10 -53 -13 -53 -43 0 -79 -45 -109 -73 -48 -8 17 -18 64 -22 102
l-7 70 21 -19 c28 -25 68 -15 77 21 13 50 -50 76 -83 35 -19 -23 -16 -1 3 26
10 15 25 22 48 22 41 0 134 40 161 69 14 16 26 21 45 16 24 -5 24 -5 6 10 -22
17 -35 19 -52 7z m56 -51 c0 -6 -4 -13 -10 -16 -5 -3 -10 1 -10 9 0 9 5 16 10
16 6 0 10 -4 10 -9z m37 -27 c-9 -9 -28 6 -21 18 4 6 10 6 17 -1 6 -6 8 -13 4
-17z m-57 -14 c0 -5 -4 -10 -10 -10 -5 0 -10 5 -10 10 0 6 5 10 10 10 6 0 10
-4 10 -10z m40 -15 c0 -8 -4 -15 -10 -15 -5 0 -10 7 -10 15 0 8 5 15 10 15 6
0 10 -7 10 -15z m-226 -54 c10 -16 -6 -42 -23 -39 -9 2 -17 13 -19 26 -3 16 2
22 17 22 11 0 22 -4 25 -9z m94 -46 c2 -2 -1 -12 -7 -23 -7 -14 -17 -18 -31
-15 -21 6 -24 12 -14 37 4 12 13 15 28 10 11 -4 22 -8 24 -9z"/>
<path d="M264 930 c40 -208 60 -268 111 -328 54 -63 122 -76 195 -36 24 13 23
13 -25 14 -27 0 -69 9 -92 19 -77 35 -146 152 -169 286 -4 22 -11 47 -15 55
-7 11 -8 8 -5 -10z"/>
<path d="M573 932 c-30 -14 -46 -42 -24 -42 22 0 82 32 79 42 -6 17 -19 17
-55 0z m47 -2 c0 -5 -5 -10 -11 -10 -5 0 -7 5 -4 10 3 6 8 10 11 10 2 0 4 -4
4 -10z"/>
<path d="M634 896 c-3 -8 -4 -25 -2 -38 2 -19 9 -23 38 -23 31 0 35 3 38 29 2
16 -2 32 -10 37 -21 14 -58 10 -64 -5z m51 -45 c-13 -14 -17 -13 -32 2 -17 17
-17 19 2 33 18 13 21 13 32 -3 11 -14 11 -20 -2 -32z"/>
<path d="M550 400 c0 -47 4 -80 10 -80 6 0 10 33 10 80 0 47 -4 80 -10 80 -6
0 -10 -33 -10 -80z"/>
<path d="M266 402 c-10 -40 -16 -76 -12 -79 10 -10 16 2 25 48 l8 44 23 -50
23 -49 22 49 22 50 7 -42 c7 -41 20 -62 29 -46 2 5 -4 40 -14 78 l-17 70 -24
-54 -25 -55 -25 55 -24 54 -18 -73z"/>
<path d="M697 464 c-8 -8 1 -24 14 -24 5 0 9 7 9 15 0 15 -12 20 -23 9z"/>
<path d="M442 408 c-16 -16 -15 -65 1 -75 6 -4 27 -8 44 -8 32 0 33 1 33 46 0
45 -1 46 -33 47 -19 1 -39 -4 -45 -10z m53 -38 c0 -29 -32 -41 -41 -16 -9 24
4 48 23 44 12 -2 18 -12 18 -28z"/>
<path d="M590 413 c1 -5 11 -27 23 -51 l23 -43 22 46 c25 52 26 55 12 55 -5 0
-16 -15 -23 -32 l-13 -33 -12 33 c-9 28 -33 46 -32 25z"/>
<path d="M700 370 c0 -27 5 -50 10 -50 6 0 10 23 10 50 0 28 -4 50 -10 50 -5
0 -10 -22 -10 -50z"/>
<path d="M750 369 c0 -57 17 -66 22 -11 2 30 7 38 26 40 20 3 22 -1 22 -37 0
-23 5 -41 11 -41 6 0 9 19 7 48 l-3 47 -42 1 -43 2 0 -49z"/>
<path d="M876 404 c-23 -23 -19 -51 9 -70 36 -24 75 -6 75 34 0 15 -5 33 -12
40 -17 17 -54 15 -72 -4z m62 -30 c4 -26 -26 -40 -45 -21 -8 7 -11 21 -7 31 9
24 48 17 52 -10z"/>
<path d="M316 204 c-20 -19 -21 -68 -2 -83 7 -6 28 -10 45 -9 27 2 31 6 31 30
0 23 -4 28 -25 28 -14 0 -25 -4 -25 -10 0 -5 10 -10 22 -10 21 0 21 -1 5 -17
-21 -21 -50 -8 -55 24 -4 29 24 50 49 35 30 -19 36 -13 10 8 -28 24 -35 25
-55 4z"/>
<path d="M898 193 c-7 -36 4 -83 19 -83 11 0 13 4 5 13 -5 6 -8 26 -6 44 4 34
-12 56 -18 26z"/>
<path d="M417 183 c-13 -13 -7 -25 7 -14 8 7 17 8 20 3 3 -5 -6 -14 -20 -21
-34 -15 -26 -36 14 -37 28 -1 32 2 32 26 0 38 -32 64 -53 43z m25 -55 c-6 -6
-15 -8 -19 -4 -4 4 -1 11 7 16 19 12 27 3 12 -12z"/>
<path d="M489 186 c-6 -9 -5 -76 1 -76 6 0 10 14 10 30 0 42 27 40 33 -2 l4
-33 1 33 c3 43 32 45 32 2 0 -16 5 -30 10 -30 14 0 12 57 -2 67 -10 6 -85 13
-89 9z"/>
<path d="M610 176 c-28 -35 13 -88 44 -56 8 9 6 11 -11 6 -12 -4 -24 -2 -28 4
-4 6 6 10 24 10 34 0 36 2 21 31 -13 23 -33 25 -50 5z m40 -16 c0 -5 -9 -10
-21 -10 -11 0 -17 5 -14 10 3 6 13 10 21 10 8 0 14 -4 14 -10z"/>
<path d="M727 184 c-13 -14 -7 -33 13 -39 11 -3 20 -11 20 -16 0 -14 -28 -11
-33 4 -2 6 -8 9 -12 5 -12 -11 5 -28 30 -28 33 0 40 28 10 42 -13 6 -22 15
-19 20 3 5 13 3 22 -4 13 -11 14 -11 10 2 -5 17 -30 25 -41 14z"/>
<path d="M793 155 c2 -36 5 -40 30 -41 25 -1 27 2 27 38 0 24 -4 37 -10 33 -6
-4 -8 -11 -5 -16 9 -14 -5 -51 -18 -46 -7 2 -15 19 -19 38 -6 34 -6 34 -5 -6z"/>
<path d="M873 150 c0 -25 2 -35 4 -22 2 12 2 32 0 45 -2 12 -4 2 -4 -23z"/>
<path d="M938 165 c-14 -30 5 -57 36 -53 39 6 29 78 -10 78 -8 0 -19 -11 -26
-25z m47 -5 c-3 -5 -13 -10 -21 -10 -8 0 -14 5 -14 10 0 6 9 10 21 10 11 0 17
-4 14 -10z m-3 -32 c-9 -9 -15 -9 -24 0 -9 9 -7 12 12 12 19 0 21 -3 12 -12z"/>
</g>
</svg>
